# xmcd
#
# Track frame offsets:
#	150
#	16869
#	31219
#	46775
#	63340
#	78922
#	94530
#	110178
#	127075
#	144734
#	161933
#
# Disc length: 2385 seconds
#
# Revision: 1
# Processed by: cddbd v1.5.2PL0 Copyright (c) Steve Scherf et al.
# Submitted via: audiograbber 1.83.01
#
DISCID=8f094f0b
DTITLE=Various Artist - CDX 676
DYEAR=2019
DGENRE=Country
TTITLE0=Thompson Square - Masterpiece (Radio Edit)
TTITLE1=Jeannie C Riley - Me and Bobby McGee
TTITLE2=Randy Travis - One In A Row
TTITLE3=Jet Jurgensmeyer - A Lot More Love
TTITLE4=Carolina - Everyday American
TTITLE5=Christian Davis - Hands Of A Working Man (Country Version)
TTITLE6=John Schneider - Love You Ain't Seen The Last of Me
TTITLE7=Peyton Davis - No Romeo
TTITLE8=Wes Brown - Shelter When It's Raining
TTITLE9=Tommy Overstreet - Somewhere In The Caribbean
TTITLE10=Tommy Overstreet - Buffett Would Love It
EXTD=
EXTT0=
EXTT1=
EXTT2=
EXTT3=
EXTT4=
EXTT5=
EXTT6=
EXTT7=
EXTT8=
EXTT9=
EXTT10=
PLAYORDER=
